<svg width="24" height="24" viewBox="0 0 24 24" fill="none" xmlns="http://www.w3.org/2000/svg">
<path fill-rule="evenodd" clip-rule="evenodd" d="M6.20711 2.87868C6.76972 2.31607 7.53278 2 8.32843 2H15.6716C16.4672 2 17.2303 2.31607 17.7929 2.87868L21.1213 6.20711C21.6839 6.76972 22 7.53278 22 8.32843V15.6716C22 16.4672 21.6839 17.2303 21.1213 17.7929L17.7929 21.1213C17.2303 21.6839 16.4672 22 15.6716 22H8.32843C7.53278 22 6.76972 21.6839 6.20711 21.1213L2.87868 17.7929C2.31607 17.2303 2 16.4672 2 15.6716V8.32843C2 7.53278 2.31607 6.76972 2.87868 6.20711L6.20711 2.87868ZM13 8C13 7.44772 12.5523 7 12 7C11.4477 7 11 7.44772 11 8V12C11 12.5523 11.4477 13 12 13C12.5523 13 13 12.5523 13 12V8ZM12 15C11.4477 15 11 15.4477 11 16C11 16.5523 11.4477 17 12 17H12.01C12.5623 17 13.01 16.5523 13.01 16C13.01 15.4477 12.5623 15 12.01 15H12Z" fill="#686B6E"/>
</svg>
