<svg width="24" height="24" viewBox="0 0 24 24" fill="none" xmlns="http://www.w3.org/2000/svg">
<path d="M8.57143 16V17.5714C8.57143 19.465 10.1065 21 12 21V21C13.8935 21 15.4286 19.465 15.4286 17.5714V16M8.57143 16V15.3508C8.57143 14.7092 8.2476 14.1213 7.79785 13.6636C6.68829 12.5345 6 10.9617 6 9.22222C6 5.78578 8.68629 3 12 3C15.3137 3 18 5.78578 18 9.22222C18 10.9617 17.3117 12.5345 16.2022 13.6636C15.7524 14.1213 15.4286 14.7092 15.4286 15.3508V16M8.57143 16H15.4286" stroke="#686B6E" stroke-width="1.5" stroke-linecap="round" stroke-linejoin="round"/>
</svg>
