<svg width="24" height="24" viewBox="0 0 24 24" fill="none" xmlns="http://www.w3.org/2000/svg">
<path d="M7 5H6C4.34315 5 3 6.34315 3 8V10M7 5V3M7 5H17M17 5H18C19.6569 5 21 6.34315 21 8V10M17 5V3M3 10V18C3 19.6569 4.34315 21 6 21H12M3 10H21M21 10V12M7 14H9M22 17L17.4142 21.5858C17.149 21.851 16.7893 22 16.4142 22V22C15.6332 22 15 21.3668 15 20.5858V20.5858C15 20.2107 15.149 19.851 15.4142 19.5858L20 15C20.5523 14.4477 21.4477 14.4477 22 15C22.5523 15.5523 22.5523 16.4477 22 17Z" stroke="#686B6E" stroke-width="1.5" stroke-linecap="round"/>
</svg>
