<svg width="24" height="24" viewBox="0 0 24 24" fill="none" xmlns="http://www.w3.org/2000/svg">
<path d="M5.55025 8.55025C4.2835 9.817 3.5 11.567 3.5 13.5C3.5 15.433 4.2835 17.183 5.55025 18.4497M5.55025 8.55025C6.59523 7.50527 7.96907 6.78915 9.5032 6.57043C10.05 6.49248 10.5 6.94772 10.5 7.5V13.5M5.55025 8.55025L10.5 13.5M10.5 13.5L5.55025 18.4497M10.5 13.5H16.5C17.0523 13.5 17.5075 13.9503 17.4295 14.497C16.9456 17.8908 14.0275 20.5 10.5 20.5C8.567 20.5 6.817 19.7165 5.55025 18.4497M14.497 3.57046C17.5651 4.00798 19.992 6.43488 20.4295 9.50297C20.5075 10.0497 20.0523 10.5 19.5 10.5H14.5C13.9477 10.5 13.5 10.0523 13.5 9.5V4.5C13.5 3.94771 13.9503 3.4925 14.497 3.57046Z" stroke="#686B6E" stroke-width="1.5" stroke-linecap="round"/>
</svg>
