<svg width="24" height="24" viewBox="0 0 24 24" fill="none" xmlns="http://www.w3.org/2000/svg">
<path d="M14.9587 3.86932C15.0866 3.7414 15.0403 3.52462 14.8689 3.46699C13.9678 3.16413 13.0029 3 11.9998 3C7.46283 3 3.70998 6.35705 3.08971 10.7226C3.06876 10.8701 3.1849 11 3.33385 11H6.89543C7.01433 11 7.11612 10.916 7.14454 10.8006C7.66081 8.7037 9.50002 7.12733 11.7263 7.00735C11.7896 7.00394 11.8499 6.97809 11.8947 6.9333L14.9587 3.86932Z" stroke="#686B6E" stroke-width="1.5" stroke-linecap="round"/>
<path d="M15.9189 8.89479C15.8372 8.79181 15.8417 8.64316 15.9347 8.5502L18.4181 6.0668C18.5183 5.96655 18.6821 5.96943 18.7755 6.07613C20.1605 7.65901 20.9998 9.73149 20.9998 12C20.9998 14.0247 20.3312 15.8933 19.2027 17.397C19.1132 17.5162 18.9394 17.5256 18.8341 17.4203L16.3158 14.902C16.2317 14.8179 16.2191 14.6866 16.2806 14.5849C16.7371 13.8306 16.9998 12.946 16.9998 12C16.9998 10.8267 16.5956 9.74772 15.9189 8.89479Z" stroke="#686B6E" stroke-width="1.5" stroke-linecap="round"/>
<path d="M12.7955 17.0386C12.74 16.983 12.6616 16.9572 12.5835 16.9663C12.392 16.9886 12.1972 17 11.9998 17C10.4088 17 8.99138 16.2569 8.07564 15.0989C8.02687 15.0372 7.95313 15 7.87451 15H3.86539C3.69286 15 3.57237 15.1707 3.63626 15.3309C4.96033 18.6526 8.20591 21 11.9998 21C13.2637 21 14.4668 20.7394 15.5583 20.2691C15.7167 20.2008 15.7521 19.9951 15.6301 19.8731L12.7955 17.0386Z" stroke="#686B6E" stroke-width="1.5" stroke-linecap="round"/>
</svg>
