<svg width="24" height="24" viewBox="0 0 24 24" fill="none" xmlns="http://www.w3.org/2000/svg">
<path d="M3 5C3 3.89543 3.89543 3 5 3C6.10457 3 7 3.89543 7 5V19C7 20.1046 6.10457 21 5 21C3.89543 21 3 20.1046 3 19V5Z" stroke="#686B6E" stroke-width="1.5" stroke-linecap="round"/>
<path d="M10 11C10 9.89543 10.8954 9 12 9C13.1046 9 14 9.89543 14 11V19C14 20.1046 13.1046 21 12 21C10.8954 21 10 20.1046 10 19V11Z" stroke="#686B6E" stroke-width="1.5" stroke-linecap="round"/>
<path d="M17 17C17 15.8954 17.8954 15 19 15C20.1046 15 21 15.8954 21 17V19C21 20.1046 20.1046 21 19 21C17.8954 21 17 20.1046 17 19V17Z" stroke="#686B6E" stroke-width="1.5" stroke-linecap="round"/>
</svg>
