<svg width="24" height="24" viewBox="0 0 24 24" fill="none" xmlns="http://www.w3.org/2000/svg">
<path d="M3 13L8.29289 7.70711C8.68342 7.31658 9.31658 7.31658 9.70711 7.70711L12.2929 10.2929C12.6834 10.6834 13.3166 10.6834 13.7071 10.2929L21 3M21 3V7M21 3H17M5 21C3.89543 21 3 20.1046 3 19V18C3 16.8954 3.89543 16 5 16C6.10457 16 7 16.8954 7 18V19C7 20.1046 6.10457 21 5 21ZM12 21C10.8954 21 10 20.1046 10 19V16C10 14.8954 10.8954 14 12 14C13.1046 14 14 14.8954 14 16V19C14 20.1046 13.1046 21 12 21ZM19 21C17.8954 21 17 20.1046 17 19V13C17 11.8954 17.8954 11 19 11C20.1046 11 21 11.8954 21 13V19C21 20.1046 20.1046 21 19 21Z" stroke="#686B6E" stroke-width="1.5" stroke-linecap="round" stroke-linejoin="round"/>
</svg>
