<svg width="24" height="24" viewBox="0 0 24 24" fill="none" xmlns="http://www.w3.org/2000/svg">
<path d="M3 5C3 3.89543 3.89543 3 5 3C6.10457 3 7 3.89543 7 5V19C7 20.1046 6.10457 21 5 21C3.89543 21 3 20.1046 3 19V5Z" stroke="#686B6E" stroke-width="1.5" stroke-linecap="round"/>
<path d="M10 13C10 11.8954 10.8954 11 12 11C13.1046 11 14 11.8954 14 13V19C14 20.1046 13.1046 21 12 21C10.8954 21 10 20.1046 10 19V13Z" stroke="#686B6E" stroke-width="1.5" stroke-linecap="round"/>
<path d="M17 9C17 7.89543 17.8954 7 19 7C20.1046 7 21 7.89543 21 9V19C21 20.1046 20.1046 21 19 21C17.8954 21 17 20.1046 17 19V9Z" stroke="#686B6E" stroke-width="1.5" stroke-linecap="round"/>
</svg>
