<svg width="24" height="24" viewBox="0 0 24 24" fill="none" xmlns="http://www.w3.org/2000/svg">
<path fill-rule="evenodd" clip-rule="evenodd" d="M9.3716 3.70427C10.5114 1.63195 13.4891 1.63194 14.6289 3.70427L21.4313 16.0723C22.8975 18.7381 20.9688 21.9999 17.9264 21.9999H6.07406C3.03165 21.9999 1.103 18.7381 2.56919 16.0723L9.3716 3.70427ZM10.7074 12.2929C10.3168 11.9024 9.68366 11.9024 9.29314 12.2929C8.90261 12.6834 8.90261 13.3166 9.29314 13.7071L10.586 15L9.29314 16.2929C8.90261 16.6834 8.90261 17.3166 9.29314 17.7071C9.68366 18.0976 10.3168 18.0976 10.7074 17.7071L12.0002 16.4142L13.2931 17.7071C13.6837 18.0976 14.3168 18.0976 14.7074 17.7071C15.0979 17.3166 15.0979 16.6834 14.7074 16.2929L13.4145 15L14.7074 13.7071C15.0979 13.3166 15.0979 12.6834 14.7074 12.2929C14.3168 11.9024 13.6837 11.9024 13.2931 12.2929L12.0002 13.5858L10.7074 12.2929Z" fill="#686B6E"/>
</svg>
