<svg width="24" height="24" viewBox="0 0 24 24" fill="none" xmlns="http://www.w3.org/2000/svg">
<path fill-rule="evenodd" clip-rule="evenodd" d="M10.0003 3.00001C11.2379 2.28548 12.7627 2.28548 14.0003 3.00001L18.7945 5.76796C20.0321 6.48249 20.7945 7.803 20.7945 9.23206V14.768C20.7945 16.197 20.0321 17.5175 18.7945 18.2321L14.0003 21C12.7627 21.7145 11.2379 21.7145 10.0003 21L5.20605 18.2321C3.96845 17.5175 3.20605 16.197 3.20605 14.768V9.23206C3.20605 7.803 3.96845 6.48249 5.20605 5.76796L10.0003 3.00001ZM9.70735 8.29289C9.31683 7.90237 8.68366 7.90237 8.29314 8.29289C7.90261 8.68342 7.90261 9.31658 8.29314 9.70711L10.586 12L8.29314 14.2929C7.90261 14.6834 7.90261 15.3166 8.29314 15.7071C8.68366 16.0976 9.31683 16.0976 9.70735 15.7071L12.0002 13.4142L14.2931 15.7071C14.6837 16.0976 15.3168 16.0976 15.7074 15.7071C16.0979 15.3166 16.0979 14.6834 15.7074 14.2929L13.4145 12L15.7074 9.70711C16.0979 9.31658 16.0979 8.68342 15.7074 8.29289C15.3168 7.90237 14.6837 7.90237 14.2931 8.29289L12.0002 10.5858L9.70735 8.29289Z" fill="#686B6E"/>
</svg>
