<svg width="24" height="24" viewBox="0 0 24 24" fill="none" xmlns="http://www.w3.org/2000/svg">
<path d="M8 15L9.10557 15.5528C9.66863 15.8343 10.3314 15.8343 10.8944 15.5528L11.1056 15.4472C11.6686 15.1657 12.3314 15.1657 12.8944 15.4472L13.1056 15.5528C13.6686 15.8343 14.3314 15.8343 14.8944 15.5528L16 15M15 9V9C14.4477 9.55228 14.4477 10.4477 15 11V11M9 9V9C9.55228 9.55228 9.55228 10.4477 9 11V11M21 12C21 16.9706 16.9706 21 12 21C7.02944 21 3 16.9706 3 12C3 7.02944 7.02944 3 12 3C16.9706 3 21 7.02944 21 12Z" stroke="#686B6E" stroke-width="1.5" stroke-linecap="round" stroke-linejoin="round"/>
</svg>
