<svg width="24" height="24" viewBox="0 0 24 24" fill="none" xmlns="http://www.w3.org/2000/svg">
<path d="M9 14C9.73294 14.8304 10.8053 15.3542 12 15.3542C13.1947 15.3542 14.2671 14.8304 15 14M10.5 9.61806C10.2346 9.85558 9.88418 10 9.5 10C9.11582 10 8.76538 9.85558 8.5 9.61806M15.5 9.61806C15.2346 9.85558 14.8842 10 14.5 10C14.1158 10 13.7654 9.85558 13.5 9.61806M21 12C21 16.9706 16.9706 21 12 21C7.02944 21 3 16.9706 3 12C3 7.02944 7.02944 3 12 3C16.9706 3 21 7.02944 21 12Z" stroke="#686B6E" stroke-width="1.5" stroke-linecap="round" stroke-linejoin="round"/>
</svg>
