<svg width="24" height="24" viewBox="0 0 24 24" fill="none" xmlns="http://www.w3.org/2000/svg">
<path d="M15 5H16C17.6569 5 19 6.34315 19 8V18C19 19.6569 17.6569 21 16 21H15M9 5H8C6.34315 5 5 6.34315 5 8V18C5 19.6569 6.34315 21 8 21H9M9 21V20C9 18.8954 9.89543 18 11 18H13C14.1046 18 15 18.8954 15 20V21M9 21H15M13 14C13 14.5523 12.5523 15 12 15C11.4477 15 11 14.5523 11 14C11 13.4477 11.4477 13 12 13C12.5523 13 13 13.4477 13 14ZM11 7H13C13.5523 7 14 6.55228 14 6V5C14 3.89543 13.1046 3 12 3C10.8954 3 10 3.89543 10 5V6C10 6.55228 10.4477 7 11 7Z" stroke="#686B6E" stroke-width="1.5" stroke-linecap="round" stroke-linejoin="round"/>
</svg>
