<svg width="24" height="24" viewBox="0 0 24 24" fill="none" xmlns="http://www.w3.org/2000/svg">
<path d="M15 7H18C19.6569 7 21 8.34315 21 10V18C21 19.6569 19.6569 21 18 21H15M9 7H6C4.34315 7 3 8.34315 3 10V18C3 19.6569 4.34315 21 6 21H9M9 21H15M9 21V20C9 18.8954 9.89543 18 11 18H13C14.1046 18 15 18.8954 15 20V21M13 14C13 14.5523 12.5523 15 12 15C11.4477 15 11 14.5523 11 14C11 13.4477 11.4477 13 12 13C12.5523 13 13 13.4477 13 14ZM10 9H14C14.5523 9 15 8.55228 15 8V6C15 4.34315 13.6569 3 12 3C10.3431 3 9 4.34315 9 6V8C9 8.55228 9.44772 9 10 9Z" stroke="#686B6E" stroke-width="1.5" stroke-linecap="round" stroke-linejoin="round"/>
</svg>
