<svg width="24" height="24" viewBox="0 0 24 24" fill="none" xmlns="http://www.w3.org/2000/svg">
<path fill-rule="evenodd" clip-rule="evenodd" d="M6.20711 2.87868C6.76972 2.31607 7.53278 2 8.32843 2H15.6716C16.4672 2 17.2303 2.31607 17.7929 2.87868L21.1213 6.20711C21.6839 6.76972 22 7.53278 22 8.32843V15.6716C22 16.4672 21.6839 17.2303 21.1213 17.7929L17.7929 21.1213C17.2303 21.6839 16.4672 22 15.6716 22H8.32843C7.53278 22 6.76972 21.6839 6.20711 21.1213L2.87868 17.7929C2.31607 17.2303 2 16.4672 2 15.6716V8.32843C2 7.53278 2.31607 6.76972 2.87868 6.20711L6.20711 2.87868ZM12 7C11.4477 7 11 7.44772 11 8C11 8.55228 11.4477 9 12 9H12.01C12.5623 9 13.01 8.55228 13.01 8C13.01 7.44772 12.5623 7 12.01 7H12ZM13 12C13 11.4477 12.5523 11 12 11C11.4477 11 11 11.4477 11 12V16C11 16.5523 11.4477 17 12 17C12.5523 17 13 16.5523 13 16V12Z" fill="#686B6E"/>
</svg>
