<svg width="24" height="24" viewBox="0 0 24 24" fill="none" xmlns="http://www.w3.org/2000/svg">
<path fill-rule="evenodd" clip-rule="evenodd" d="M10.0003 3.00001C11.2379 2.28548 12.7627 2.28548 14.0003 3.00001L18.7945 5.76796C20.0321 6.48249 20.7945 7.803 20.7945 9.23206V14.768C20.7945 16.197 20.0321 17.5175 18.7945 18.2321L14.0003 21C12.7627 21.7145 11.2379 21.7145 10.0003 21L5.20605 18.2321C3.96845 17.5175 3.20605 16.197 3.20605 14.768V9.23206C3.20605 7.803 3.96845 6.48249 5.20605 5.76796L10.0003 3.00001ZM12.0002 7C11.448 7 11.0002 7.44772 11.0002 8C11.0002 8.55228 11.448 9 12.0002 9H12.0102C12.5625 9 13.0102 8.55228 13.0102 8C13.0102 7.44772 12.5625 7 12.0102 7H12.0002ZM13.0002 12C13.0002 11.4477 12.5525 11 12.0002 11C11.448 11 11.0002 11.4477 11.0002 12V16C11.0002 16.5523 11.448 17 12.0002 17C12.5525 17 13.0002 16.5523 13.0002 16V12Z" fill="#686B6E"/>
</svg>
