<svg width="24" height="24" viewBox="0 0 24 24" fill="none" xmlns="http://www.w3.org/2000/svg">
<path d="M10.5002 10.5L12.586 8.41421C13.367 7.63316 14.6334 7.63317 15.4144 8.41421L15.586 8.58579C16.367 9.36684 16.367 10.6332 15.586 11.4142L13.5002 13.5M10.5002 10.5L3.4144 17.5858C2.63335 18.3668 2.63335 19.6332 3.4144 20.4142L3.58597 20.5858C4.36702 21.3668 5.63335 21.3668 6.4144 20.5858L13.5002 13.5M10.5002 10.5L13.5002 13.5M8.29953 8.35722L6.00019 7.38534M11.3401 5.31499L10.4105 3M15.6457 5.31499L16.5752 3M18.6847 8.35353L20.9895 7.3949M18.6847 12.6465L21.0002 13.5794M15.6421 15.6865L16.5753 18" stroke="#686B6E" stroke-width="1.5" stroke-linecap="round" stroke-linejoin="round"/>
</svg>
