<svg width="24" height="24" viewBox="0 0 24 24" fill="none" xmlns="http://www.w3.org/2000/svg">
<path d="M17.7661 10.2815C17.9188 9.72221 18 9.16522 18 8.61432C18 5.51362 15.3137 3 12 3C8.68629 3 6 5.51362 6 8.61432C6 9.66797 6.29693 10.7439 6.82351 11.8154M17.7661 10.2815C17.1602 12.5 15.6775 14.4222 13.661 16.3498C12.7539 17.2168 11.2461 17.2168 10.339 16.3498C8.82331 14.9009 7.58394 13.3627 6.82351 11.8154M17.7661 10.2815L19.4339 10.652C20.3489 10.8553 21 11.6669 21 12.6043V17.6587C21 18.9382 19.8152 19.8887 18.5661 19.6111L17.8016 19.4412C16.9443 19.2507 16.0557 19.2507 15.1984 19.4412L8.80158 20.8627C7.94432 21.0532 7.05568 21.0532 6.19842 20.8627L4.56614 20.5C3.65106 20.2966 3 19.485 3 18.5476V13.3049C3 12.122 4.09533 11.2434 5.25 11.5L6.19842 11.7108C6.40525 11.7567 6.61391 11.7916 6.82351 11.8154M14 9C14 10.1046 13.1046 11 12 11C10.8954 11 10 10.1046 10 9C10 7.89543 10.8954 7 12 7C13.1046 7 14 7.89543 14 9Z" stroke="#686B6E" stroke-width="1.5" stroke-linecap="round"/>
</svg>
