<svg width="24" height="24" viewBox="0 0 24 24" fill="none" xmlns="http://www.w3.org/2000/svg">
<path d="M19 10.2C19 13.5025 16.9307 16.9755 13.9378 20.1202C12.8796 21.2321 11.1204 21.2321 10.0622 20.1202C7.06932 16.9755 5 13.5025 5 10.2C5 6.22355 8.13401 3 12 3C15.866 3 19 6.22355 19 10.2Z" stroke="#686B6E" stroke-width="1.5" stroke-linecap="round"/>
<path d="M14 10C14 11.1046 13.1046 12 12 12C10.8954 12 10 11.1046 10 10C10 8.89543 10.8954 8 12 8C13.1046 8 14 8.89543 14 10Z" stroke="#686B6E" stroke-width="1.5" stroke-linecap="round"/>
</svg>
