<svg width="24" height="24" viewBox="0 0 24 24" fill="none" xmlns="http://www.w3.org/2000/svg">
<path d="M14.4271 16.4563C14.156 16.9073 14 17.4354 14 18C14 19.6569 15.3431 21 17 21C18.6569 21 20 19.6569 20 18C20 16.3431 18.6569 15 17 15C15.9077 15 14.9518 15.5837 14.4271 16.4563ZM14.4271 16.4563L9.57287 13.5437M9.57287 13.5437C9.84405 13.0927 10 12.5646 10 12C10 11.4354 9.84405 10.9073 9.57287 10.4563M9.57287 13.5437C9.04822 14.4163 8.09228 15 7 15C5.34315 15 4 13.6569 4 12C4 10.3431 5.34315 9 7 9C8.09228 9 9.04822 9.58374 9.57287 10.4563M9.57287 10.4563L14.4271 7.54372M14.4271 7.54372C14.9518 8.41626 15.9077 9 17 9C18.6569 9 20 7.65685 20 6C20 4.34315 18.6569 3 17 3C15.3431 3 14 4.34315 14 6C14 6.56458 14.156 7.09272 14.4271 7.54372Z" stroke="#686B6E" stroke-width="1.5" stroke-linecap="round" stroke-linejoin="round"/>
</svg>
