<svg width="24" height="24" viewBox="0 0 24 24" fill="none" xmlns="http://www.w3.org/2000/svg">
<path d="M13 15H11C7.68629 15 5 17.6863 5 21M22 22L20.6557 20.6557M20.6557 20.6557C21.1493 20.1622 21.4545 19.4804 21.4545 18.7273C21.4545 17.221 20.2335 16 18.7273 16C17.221 16 16 17.221 16 18.7273C16 20.2335 17.221 21.4545 18.7273 21.4545C19.4804 21.4545 20.1622 21.1493 20.6557 20.6557ZM16 7C16 9.20914 14.2091 11 12 11C9.79086 11 8 9.20914 8 7C8 4.79086 9.79086 3 12 3C14.2091 3 16 4.79086 16 7Z" stroke="#686B6E" stroke-width="1.5" stroke-linecap="round" stroke-linejoin="round"/>
</svg>
