<svg width="24" height="24" viewBox="0 0 24 24" fill="none" xmlns="http://www.w3.org/2000/svg">
<path d="M13 15H11C7.68629 15 5 17.6863 5 21M16 7C16 9.20914 14.2091 11 12 11C9.79086 11 8 9.20914 8 7C8 4.79086 9.79086 3 12 3C14.2091 3 16 4.79086 16 7ZM22 17L17.4142 21.5858C17.149 21.851 16.7893 22 16.4142 22V22C15.6332 22 15 21.3668 15 20.5858V20.5858C15 20.2107 15.149 19.851 15.4142 19.5858L20 15C20.5523 14.4477 21.4477 14.4477 22 15C22.5523 15.5523 22.5523 16.4477 22 17Z" stroke="#686B6E" stroke-width="1.5" stroke-linecap="round" stroke-linejoin="round"/>
</svg>
