<svg width="24" height="24" viewBox="0 0 24 24" fill="none" xmlns="http://www.w3.org/2000/svg">
<path fill-rule="evenodd" clip-rule="evenodd" d="M9.37111 3.70427C10.5109 1.63195 13.4886 1.63194 14.6284 3.70427L21.4308 16.0723C22.897 18.7381 20.9684 21.9999 17.9259 21.9999H6.07357C3.03116 21.9999 1.10251 18.7381 2.5687 16.0723L9.37111 3.70427ZM12.9998 9C12.9998 8.44772 12.552 8 11.9998 8C11.4475 8 10.9998 8.44772 10.9998 9V13C10.9998 13.5523 11.4475 14 11.9998 14C12.552 14 12.9998 13.5523 12.9998 13V9ZM11.9998 16C11.4475 16 10.9998 16.4477 10.9998 17C10.9998 17.5523 11.4475 18 11.9998 18H12.0098C12.562 18 13.0098 17.5523 13.0098 17C13.0098 16.4477 12.562 16 12.0098 16H11.9998Z" fill="#686B6E"/>
</svg>
