<svg width="24" height="24" viewBox="0 0 24 24" fill="none" xmlns="http://www.w3.org/2000/svg">
<path d="M16 21H6C4.34315 21 3 19.6569 3 18V10M7 5H6C5.69691 5 5.40432 5.04495 5.12854 5.12854M7 5V3M7 5H17M17 5H18C19.6569 5 21 6.34315 21 8V10M17 5V3M3 10V8.5M3 10H5.5M21 10V18C21 18.8284 20.6642 19.5784 20.1213 20.1213M21 10H10M2 2L5.12854 5.12854M5.12854 5.12854L10 10M10 10L20.1213 20.1213M20.1213 20.1213L22 22" stroke="#686B6E" stroke-width="1.5" stroke-linecap="round" stroke-linejoin="round"/>
</svg>
