<svg width="24" height="24" viewBox="0 0 24 24" fill="none" xmlns="http://www.w3.org/2000/svg">
<path fill-rule="evenodd" clip-rule="evenodd" d="M9.37111 3.70427C10.5109 1.63195 13.4886 1.63194 14.6284 3.70427L21.4308 16.0723C22.897 18.7381 20.9684 21.9999 17.9259 21.9999H6.07357C3.03116 21.9999 1.10251 18.7381 2.5687 16.0723L9.37111 3.70427ZM14.768 13.6402C15.1216 13.2159 15.0642 12.5854 14.64 12.2318C14.2157 11.8782 13.5851 11.9356 13.2316 12.3598L11.4998 14.438L10.768 13.5598C10.4144 13.1356 9.78387 13.0782 9.3596 13.4318C8.93532 13.7854 8.878 14.4159 9.23156 14.8402L9.96334 15.7183C10.7629 16.6779 12.2366 16.6779 13.0362 15.7183L14.768 13.6402Z" fill="#686B6E"/>
</svg>
