<svg width="24" height="24" viewBox="0 0 24 24" fill="none" xmlns="http://www.w3.org/2000/svg">
<path fill-rule="evenodd" clip-rule="evenodd" d="M10.0003 3.00001C11.2379 2.28548 12.7627 2.28548 14.0003 3.00001L18.7945 5.76796C20.0321 6.48249 20.7945 7.803 20.7945 9.23206V14.768C20.7945 16.197 20.0321 17.5175 18.7945 18.2321L14.0003 21C12.7627 21.7145 11.2379 21.7145 10.0003 21L5.20605 18.2321C3.96845 17.5175 3.20605 16.197 3.20605 14.768V9.23206C3.20605 7.803 3.96845 6.48249 5.20605 5.76796L10.0003 3.00001ZM16.7074 10.7071C17.0979 10.3166 17.0979 9.68342 16.7074 9.29289C16.3168 8.90237 15.6837 8.90237 15.2931 9.29289L11.0002 13.5858L8.70735 11.2929C8.31683 10.9024 7.68366 10.9024 7.29314 11.2929C6.90261 11.6834 6.90261 12.3166 7.29314 12.7071L9.58603 15C10.3671 15.781 11.6334 15.781 12.4145 15L16.7074 10.7071Z" fill="#686B6E"/>
</svg>
