<svg width="24" height="24" viewBox="0 0 24 24" fill="none" xmlns="http://www.w3.org/2000/svg">
<path d="M3 4C3 3.44772 3.44772 3 4 3H9C9.55228 3 10 3.44772 10 4V12C10 12.5523 9.55228 13 9 13H4C3.44772 13 3 12.5523 3 12V4Z" stroke="#686B6E" stroke-width="1.5" stroke-linecap="round" stroke-linejoin="round"/>
<path d="M14 12C14 11.4477 14.4477 11 15 11H20C20.5523 11 21 11.4477 21 12V20C21 20.5523 20.5523 21 20 21H15C14.4477 21 14 20.5523 14 20V12Z" stroke="#686B6E" stroke-width="1.5" stroke-linecap="round" stroke-linejoin="round"/>
<path d="M14 4C14 3.44772 14.4477 3 15 3H20C20.5523 3 21 3.44772 21 4V6C21 6.55228 20.5523 7 20 7H15C14.4477 7 14 6.55228 14 6V4Z" stroke="#686B6E" stroke-width="1.5" stroke-linecap="round" stroke-linejoin="round"/>
<path d="M3 18C3 17.4477 3.44772 17 4 17H9C9.55228 17 10 17.4477 10 18V20C10 20.5523 9.55228 21 9 21H4C3.44772 21 3 20.5523 3 20V18Z" stroke="#686B6E" stroke-width="1.5" stroke-linecap="round" stroke-linejoin="round"/>
</svg>
