<svg width="24" height="24" viewBox="0 0 24 24" fill="none" xmlns="http://www.w3.org/2000/svg">
<path d="M16 21H6C4.34315 21 3 19.6569 3 18V6C3 4.34315 4.34315 3 6 3H12M16 21V18C16 16.8954 16.8954 16 18 16H21M16 21H16.7574C17.553 21 18.3161 20.6839 18.8787 20.1213L20.1213 18.8787C20.6839 18.3161 21 17.553 21 16.7574V16M21 16V12M9 12.3136V14.8C9 14.9105 9.08954 15 9.2 15H11.6864C11.7394 15 11.7903 14.9789 11.8278 14.9414L20.8586 5.91065C20.9367 5.83255 20.9367 5.70591 20.8586 5.62781L18.3722 3.14142C18.2941 3.06332 18.1675 3.06332 18.0893 3.14142L9.05858 12.1722C9.02107 12.2097 9 12.2606 9 12.3136Z" stroke="#686B6E" stroke-width="1.5" stroke-linecap="round" stroke-linejoin="round"/>
</svg>
