<svg width="24" height="24" viewBox="0 0 24 24" fill="none" xmlns="http://www.w3.org/2000/svg">
<path d="M10.2 21H13.7C13.8381 21 13.95 20.8881 13.95 20.75V13.2964C13.95 13.1583 14.0619 13.0464 14.2 13.0464H16.3341C16.4581 13.0464 16.5634 12.9555 16.5814 12.8327L16.9579 10.2709C16.9801 10.12 16.8631 9.98454 16.7106 9.98454H14.2C14.0619 9.98454 13.95 9.87261 13.95 9.73454V6.49742C13.95 6.35935 14.0619 6.24742 14.2 6.24742H16.75C16.8881 6.24742 17 6.13549 17 5.99742V3.25C17 3.11193 16.8881 3 16.75 3H13.95C11.7409 3 9.95 4.79086 9.95 7V9.73454C9.95 9.87261 9.83807 9.98454 9.7 9.98454H7.25C7.11193 9.98454 7 10.0965 7 10.2345V12.75C7 12.8881 7.11193 13 7.25 13H9.7C9.83807 13 9.95 13.1119 9.95 13.25V20.75C9.95 20.8881 10.0619 21 10.2 21Z" stroke="#686B6E" stroke-width="1.5" stroke-linecap="round" stroke-linejoin="round"/>
</svg>
