<svg width="24" height="24" viewBox="0 0 24 24" fill="none" xmlns="http://www.w3.org/2000/svg">
<path d="M12 21C7.02944 21 3 16.9706 3 12C3 9.69494 3.86656 7.59227 5.29168 6M12 21C12.338 21 12.6717 20.9814 13 20.9451C13.6935 20.8684 14.3632 20.713 15 20.4879M12 21L12.269 19.3862C12.4165 18.5009 12.1953 17.5938 11.6568 16.8758L11.6118 16.8157C11.2147 16.2862 11 15.6422 11 14.9803V14.6413C11 14.2242 11.1303 13.8175 11.3728 13.4781L12.2659 12.2277C12.7994 11.4808 13.9477 11.6191 14.2885 12.4713C14.4219 12.8048 14.7022 13.0578 15.0475 13.1564L15.4722 13.2778C16.7583 13.6452 17.3593 15.1213 16.6957 16.2826L16.1433 17.2493C16.048 17.416 15.9693 17.5917 15.9084 17.7738L15 20.4879M5.29168 6C6.93964 4.15875 9.3345 3 12 3C13.1356 3 14.2222 3.21034 15.2227 3.59418M5.29168 6L5.74835 6.40098C6.53122 7.08838 6.92262 8.11903 6.7934 9.15281L6.60267 10.6787C6.54187 11.1651 6.81026 11.633 7.26079 11.8261C7.81056 12.0617 8.44784 11.8148 8.69535 11.2702L9.24103 10.0697C9.41094 9.69593 9.67217 9.37087 10.0007 9.1245L11.0156 8.36333C11.33 8.12749 11.7125 8 12.1056 8H13.0735C14.1107 8 14.7294 6.84404 14.154 5.98103C13.7831 5.42458 13.8953 4.67738 14.4135 4.25455L15.2227 3.59418M15 20.4879C18.4956 19.2524 21 15.9187 21 12C21 8.16508 18.6015 4.89037 15.2227 3.59418" stroke="#686B6E" stroke-width="1.5" stroke-linecap="round"/>
</svg>
