<svg width="24" height="24" viewBox="0 0 24 24" fill="none" xmlns="http://www.w3.org/2000/svg">
<path d="M13.6837 19.2467C12.765 20.2033 11.2349 20.2033 10.3163 19.2467L4.01565 12.6857C2.78334 11.4025 2.45264 9.57543 3.02304 8M2 2L5.4144 5.4144M22 22L16.4089 16.4089M5.4144 5.4144C7.11061 4.6466 9.1841 4.97687 10.5557 6.40519L11.961 7.86857C11.9823 7.8907 12.0177 7.8907 12.039 7.86857L13.4443 6.40518C15.2285 4.54727 18.2002 4.54727 19.9844 6.40519C21.6692 8.1597 21.6692 10.9312 19.9843 12.6857L16.4089 16.4089M5.4144 5.4144L16.4089 16.4089" stroke="#686B6E" stroke-width="1.5" stroke-linecap="round" stroke-linejoin="round"/>
</svg>
