<svg width="24" height="24" viewBox="0 0 24 24" fill="none" xmlns="http://www.w3.org/2000/svg">
<path d="M3 16V19C3 20.1046 3.89543 21 5 21H19C20.1046 21 21 20.1046 21 19V16M3 16V5C3 3.89543 3.89543 3 5 3H19C20.1046 3 21 3.89543 21 5V16M3 16L7.58579 11.4142C8.36683 10.6332 9.63317 10.6332 10.4142 11.4142L14 15M17 18L14 15M14 15L15.5858 13.4142C16.3668 12.6332 17.6332 12.6332 18.4142 13.4142L21 16M18 7.5C18 8.32843 17.3284 9 16.5 9C15.6716 9 15 8.32843 15 7.5C15 6.67157 15.6716 6 16.5 6C17.3284 6 18 6.67157 18 7.5Z" stroke="#686B6E" stroke-width="1.5" stroke-linecap="round" stroke-linejoin="round"/>
</svg>
