<svg width="24" height="24" viewBox="0 0 24 24" fill="none" xmlns="http://www.w3.org/2000/svg">
<path d="M8 10V8C8 5.79086 9.79086 4 12 4C13.36 4 14.5614 4.6787 15.2841 5.71586M12 15C12.5523 15 13 14.5523 13 14C13 13.4477 12.5523 13 12 13C11.4477 13 11 13.4477 11 14C11 14.5523 11.4477 15 12 15ZM12 15V17M7 20H17C18.1046 20 19 19.1046 19 18V12C19 10.8954 18.1046 10 17 10H7C5.89543 10 5 10.8954 5 12V18C5 19.1046 5.89543 20 7 20Z" stroke="#686B6E" stroke-width="1.5" stroke-linecap="round" stroke-linejoin="round"/>
</svg>
