<svg width="24" height="24" viewBox="0 0 24 24" fill="none" xmlns="http://www.w3.org/2000/svg">
<path d="M17.1504 11.8991C19.4778 12.803 21 14.3027 21 16C21 18.7614 16.9706 21 12 21C7.02944 21 3 18.7614 3 16C3 14.2996 4.5279 12.7974 6.86261 11.8941M17.1504 11.8991C17.4072 11.3754 17.6142 10.8377 17.7661 10.2815C17.9188 9.72221 18 9.16522 18 8.61432C18 5.51362 15.3137 3 12 3C8.68629 3 6 5.51362 6 8.61432C6 9.66797 6.29693 10.7439 6.82351 11.8154C6.83641 11.8416 6.84944 11.8679 6.86261 11.8941M17.1504 11.8991C16.3831 13.4643 15.1719 14.9055 13.661 16.3498C12.7539 17.2168 11.2461 17.2168 10.339 16.3498C8.84901 14.9255 7.62606 13.4149 6.86261 11.8941M14 9C14 10.1046 13.1046 11 12 11C10.8954 11 10 10.1046 10 9C10 7.89543 10.8954 7 12 7C13.1046 7 14 7.89543 14 9Z" stroke="#686B6E" stroke-width="1.5" stroke-linecap="round"/>
</svg>
