<svg width="24" height="24" viewBox="0 0 24 24" fill="none" xmlns="http://www.w3.org/2000/svg">
<path d="M4 17C4 18.1046 4.89543 19 6 19H8C8 20.6569 9.34315 22 11 22C12.6569 22 14 20.6569 14 19H16C17.1046 19 18 18.1046 18 17V15C19.6569 15 21 13.6569 21 12C21 10.3431 19.6569 9 18 9V7C18 5.89543 17.1046 5 16 5H14C14 3.34315 12.6569 2 11 2C9.34315 2 8 3.34315 8 5H6C4.89543 5 4 5.89543 4 7V9C5.65685 9 7 10.3431 7 12C7 13.6569 5.65685 15 4 15V17Z" stroke="#686B6E" stroke-width="1.5" stroke-linecap="round" stroke-linejoin="round"/>
</svg>
