<svg width="24" height="24" viewBox="0 0 24 24" fill="none" xmlns="http://www.w3.org/2000/svg">
<path d="M3 6H13M21 6H17M3 12H7M21 12H11M3 18H15M21 18H19M11 12C11 13.1046 10.1046 14 9 14C7.89543 14 7 13.1046 7 12M11 12C11 10.8954 10.1046 10 9 10C7.89543 10 7 10.8954 7 12M17 6C17 7.10457 16.1046 8 15 8C13.8954 8 13 7.10457 13 6M17 6C17 4.89543 16.1046 4 15 4C13.8954 4 13 4.89543 13 6M19 18C19 19.1046 18.1046 20 17 20C15.8954 20 15 19.1046 15 18M19 18C19 16.8954 18.1046 16 17 16C15.8954 16 15 16.8954 15 18" stroke="#686B6E" stroke-width="1.5" stroke-linecap="round" stroke-linejoin="round"/>
</svg>
