<svg width="24" height="24" viewBox="0 0 24 24" fill="none" xmlns="http://www.w3.org/2000/svg">
<path d="M11.0808 4.64069C11.4208 3.78644 12.5792 3.78644 12.9192 4.64069L14.3998 8.35972C14.5432 8.71985 14.8674 8.96591 15.2395 8.99708L19.0826 9.31896C19.9653 9.39289 20.3232 10.5438 19.6507 11.1457L16.7227 13.7661C16.4392 14.0198 16.3153 14.4179 16.402 14.7973L17.2965 18.7153C17.502 19.6152 16.5649 20.3265 15.8091 19.8443L12.519 17.7447C12.2003 17.5414 11.7997 17.5414 11.481 17.7447L8.19086 19.8443C7.43511 20.3265 6.49801 19.6152 6.70349 18.7153L7.59804 14.7973C7.68466 14.4179 7.56084 14.0198 7.27731 13.7661L4.34931 11.1457C3.67676 10.5438 4.03469 9.39289 4.91743 9.31896L8.76049 8.99708C9.13263 8.96591 9.4568 8.71985 9.60017 8.35972L11.0808 4.64069Z" stroke="#686B6E" stroke-width="1.5" stroke-linecap="round" stroke-linejoin="round"/>
</svg>
