<svg width="24" height="24" viewBox="0 0 24 24" fill="none" xmlns="http://www.w3.org/2000/svg">
<path d="M11 15C7.68629 15 5 17.6863 5 21M18 21V22M18 21C17.1716 21 16.4216 20.6642 15.8787 20.1213M18 21C18.8284 21 19.5784 20.6642 20.1213 20.1213M21 18H22M21 18C21 17.1716 20.6642 16.4216 20.1213 15.8787M21 18C21 18.8284 20.6642 19.5784 20.1213 20.1213M18 15V14M18 15C18.8284 15 19.5784 15.3358 20.1213 15.8787M18 15C17.1716 15 16.4216 15.3358 15.8787 15.8787M15 18H14M15 18C15 17.1716 15.3358 16.4216 15.8787 15.8787M15 18C15 18.8284 15.3358 19.5784 15.8787 20.1213M20.1213 15.8787L21 15M15.8787 15.8787L15 15M15.8787 20.1213L15 21M20.1213 20.1213L21 21M16 7C16 9.20914 14.2091 11 12 11C9.79086 11 8 9.20914 8 7C8 4.79086 9.79086 3 12 3C14.2091 3 16 4.79086 16 7Z" stroke="#686B6E" stroke-width="1.5" stroke-linecap="round" stroke-linejoin="round"/>
</svg>
