<svg width="24" height="24" viewBox="0 0 24 24" fill="none" xmlns="http://www.w3.org/2000/svg">
<path d="M11 15C7.68629 15 5 17.6863 5 21M18 16.4V17.1716C18 17.702 18.2107 18.2107 18.5858 18.5858L18.8 18.8M16 7C16 9.20914 14.2091 11 12 11C9.79086 11 8 9.20914 8 7C8 4.79086 9.79086 3 12 3C14.2091 3 16 4.79086 16 7ZM22 18C22 18.9005 21.7024 19.7315 21.2003 20.4C20.4705 21.3716 19.3087 22 18 22C16.6913 22 15.5295 21.3716 14.7997 20.4C14.2976 19.7315 14 18.9005 14 18C14 17.0995 14.2976 16.2685 14.7997 15.6C15.5295 14.6284 16.6913 14 18 14C19.3087 14 20.4705 14.6284 21.2003 15.6C21.7024 16.2685 22 17.0995 22 18Z" stroke="#686B6E" stroke-width="1.5" stroke-linecap="round" stroke-linejoin="round"/>
</svg>
