<svg width="24" height="24" viewBox="0 0 24 24" fill="none" xmlns="http://www.w3.org/2000/svg">
<path d="M13 15H11C7.68629 15 5 17.6863 5 21M16 7C16 9.20914 14.2091 11 12 11C9.79086 11 8 9.20914 8 7C8 4.79086 9.79086 3 12 3C14.2091 3 16 4.79086 16 7ZM21.804 17.0402C21.1942 16.4581 20.2344 16.4581 19.6246 17.0402L19.0142 17.6229C19.0062 17.6304 18.9938 17.6304 18.9858 17.6229L18.3754 17.0402C17.7656 16.4581 16.8058 16.4581 16.196 17.0402C15.5446 17.6619 15.5446 18.7017 16.196 19.3234L18.4726 21.4966C18.7678 21.7783 19.2322 21.7783 19.5273 21.4966L21.804 19.3234C22.4554 18.7017 22.4554 17.6619 21.804 17.0402Z" stroke="#686B6E" stroke-width="1.5" stroke-linecap="round" stroke-linejoin="round"/>
</svg>
