<svg width="24" height="24" viewBox="0 0 24 24" fill="none" xmlns="http://www.w3.org/2000/svg">
<path d="M16.0004 15C16.6281 14.1643 17 13.1256 17 12C17 10.8744 16.6281 9.83566 16.0004 9M16.0004 15C15.0882 16.2144 13.6358 17 12 17C10.3642 17 8.91184 16.2144 7.99963 15M16.0004 15L14.4559 19.6326C14.1836 20.4492 13.4194 21 12.5586 21H11.4414C10.5806 21 9.81636 20.4492 9.5441 19.6326L7.99963 15M7.99963 15C7.37194 14.1643 7 13.1256 7 12C7 10.8744 7.37194 9.83566 7.99963 9M7.99963 9C8.91184 7.78555 10.3642 7 12 7C13.6358 7 15.0882 7.78555 16.0004 9M7.99963 9L9.5441 4.36744C9.81636 3.55081 10.5806 3 11.4414 3H12.5586C13.4194 3 14.1836 3.55081 14.4559 4.36744L16.0004 9M12 10V11.1716C12 11.702 12.2107 12.2107 12.5858 12.5858L13 13" stroke="#686B6E" stroke-width="1.5" stroke-linecap="round" stroke-linejoin="round"/>
</svg>
